<svg width="26px" height="27px" viewBox="635 174 26 27" version="1.1" xmlns="http://www.w3.org/2000/svg" xmlns:xlink="http://www.w3.org/1999/xlink">
    <!-- Generator: Sketch 3.8.3 (29802) - http://www.bohemiancoding.com/sketch -->
    <desc>Created with Sketch.</desc>
    <defs>
        <polygon id="path-1" points="0.546974934 10 9.676 10 9.676 0.8701 0.546974934 0.8701"></polygon>
    </defs>
    <g id="Page-1" opacity="0.298507463" stroke="none" stroke-width="1" fill="none" fill-rule="evenodd" transform="translate(635.000000, 174.000000)">
        <polygon id="Fill-1" fill="#3A3734" points="19.9697 19.3554 18.3547 20.9694 15.0777 17.6924 16.6927 16.0784"></polygon>
        <g id="Group-9" transform="translate(0.000000, 0.676600)">
            <g id="Group-4" transform="translate(16.000000, 16.000000)">
                <mask id="mask-2" fill="white">
                    <use xlink:href="#path-1"></use>
                </mask>
                <g id="Clip-3"></g>
                <path d="M9.1416,6.0206 C9.8546,6.7336 9.8546,7.8906 9.1416,8.6046 L8.2806,9.4646 C7.5656,10.1786 6.4096,10.1786 5.6966,9.4646 L1.0826,4.8496 C0.3686,4.1366 0.3686,2.9796 1.0816,2.2666 L1.9426,1.4056 C2.6556,0.6916 3.8136,0.6916 4.5266,1.4056 L9.1416,6.0206 Z" id="Fill-2" fill="#3A3734" mask="url(#mask-2)"></path>
            </g>
            <path d="M9.8115,0.3233 C4.3915,0.3233 0.0005,4.7163 0.0005,10.1363 C0.0005,15.5553 4.3915,19.9483 9.8115,19.9483 C15.2315,19.9483 19.6255,15.5553 19.6255,10.1363 C19.6255,4.7163 15.2315,0.3233 9.8115,0.3233 M9.8115,18.1333 C5.3955,18.1333 1.8135,14.5533 1.8135,10.1363 C1.8135,5.7183 5.3955,2.1393 9.8115,2.1393 C14.2295,2.1393 17.8095,5.7183 17.8095,10.1363 C17.8095,14.5533 14.2295,18.1333 9.8115,18.1333" id="Fill-5" fill="#3A3734"></path>
            <path d="M11.8232,14.9939 C7.9092,14.9939 4.7352,11.8199 4.7352,7.9049 C4.7352,7.7999 4.7462,7.6989 4.7502,7.5949 C4.2332,8.4319 3.9302,9.4139 3.9302,10.4689 C3.9302,13.4959 6.3842,15.9489 9.4112,15.9489 C10.5792,15.9489 11.6602,15.5799 12.5502,14.9569 C12.3112,14.9809 12.0692,14.9939 11.8232,14.9939" id="Fill-7" fill="#3A3734"></path>
        </g>
    </g>
</svg>
