<svg width="178px" height="126px" viewBox="0 0 178 126" version="1.1" xmlns="http://www.w3.org/2000/svg" xmlns:xlink="http://www.w3.org/1999/xlink">
    <!-- Generator: Sketch 3.7.2 (28276) - http://www.bohemiancoding.com/sketch -->
    <desc>Created with Sketch.</desc>
    <defs>
        <path d="M50.523614,101.37931 C78.4270355,101.37931 101.047228,78.6847787 101.047228,50.6896552 C101.047228,22.6945316 78.4270355,0 50.523614,0 C22.6201925,0 0,22.6945316 0,50.6896552 C0,78.6847787 22.6201925,101.37931 50.523614,101.37931 Z" id="path-1"></path>
        <mask id="mask-2" maskContentUnits="userSpaceOnUse" maskUnits="objectBoundingBox" x="-2" y="-2" width="105.047228" height="105.37931">
            <rect x="-2" y="-2" width="105.047228" height="105.37931" fill="white"></rect>
            <use xlink:href="#path-1" fill="black"></use>
        </mask>
        <polygon id="path-3" points="0 0.358090186 59.0621569 0.358090186 59.0621569 65.1724138 0 65.1724138"></polygon>
    </defs>
    <g id="BTN-Tickmark" stroke="none" stroke-width="1" fill="none" fill-rule="evenodd" transform="translate(74.000000, 22.000000)">
        <g id="Oval-76-Copy">
            <use fill="#005A2B" fill-rule="evenodd" xlink:href="#path-1"></use>
            <use stroke="#005A2B" mask="url(#mask-2)" stroke-width="4" xlink:href="#path-1"></use>
        </g>
        <g id="Page-1" transform="translate(21.652977, 17.379310)">
            <mask id="mask-4" fill="white">
                <use xlink:href="#path-3"></use>
            </mask>
            <g id="Clip-2"></g>
            <path d="M20.45762,36.9686578 C19.7916127,36.9686578 19.2511057,36.4257931 19.2511057,35.7568806 C19.2511057,30.1513369 23.7897958,25.5928488 29.368855,25.5928488 C30.0362885,25.5928488 30.5767955,26.1349973 30.5767955,26.8053422 C30.5767955,27.4742546 30.0362885,28.0171194 29.368855,28.0171194 C25.1210974,28.0171194 21.6648474,31.4891618 21.6648474,35.7568806 C21.6648474,36.4257931 21.1250535,36.9686578 20.45762,36.9686578 L20.45762,36.9686578 Z M29.368855,47.7586313 C22.7693928,47.7586313 17.4185159,42.3844138 17.4185159,35.7568806 C17.4185159,29.1271989 22.7693928,23.7522653 29.368855,23.7522653 C35.9697435,23.7522653 41.3199072,29.1271989 41.3199072,35.7568806 C41.3199072,42.3844138 35.9697435,47.7586313 29.368855,47.7586313 L29.368855,47.7586313 Z M29.368855,20.9813634 C21.2448492,20.9813634 14.6589353,27.5960053 14.6589353,35.7568806 C14.6589353,43.9163236 21.2448492,50.5302493 29.368855,50.5302493 C37.4928609,50.5302493 44.0794879,43.9163236 44.0794879,35.7568806 C44.0794879,27.5960053 37.4928609,20.9813634 29.368855,20.9813634 L29.368855,20.9813634 Z M54.357678,17.7320531 C54.357678,18.9173316 53.4007381,19.8777294 52.2206074,19.8777294 L47.2348224,19.8777294 C46.0554047,19.8777294 45.0984648,18.9173316 45.0984648,17.7320531 L45.0984648,12.7252361 C45.0984648,11.5399576 46.0554047,10.5795597 47.2348224,10.5795597 L52.2206074,10.5795597 C53.4007381,10.5795597 54.357678,11.5399576 54.357678,12.7252361 L54.357678,17.7320531 Z M29.368855,53.5883395 C19.5634303,53.5883395 11.6155528,45.6050769 11.6155528,35.7568806 C11.6155528,25.9079682 19.5634303,17.9239894 29.368855,17.9239894 C39.1749928,17.9239894 47.1235834,25.9079682 47.1235834,35.7568806 C47.1235834,45.6050769 39.1749928,53.5883395 29.368855,53.5883395 L29.368855,53.5883395 Z M51.8198621,5.85348541 L22.3693605,5.85348541 L22.3693605,5.20677454 C22.3693605,2.52897613 20.2073325,0.357517241 17.541164,0.357517241 L13.8396179,0.357517241 C11.1734494,0.357517241 9.01213442,2.52897613 9.01213442,5.20677454 L9.01213442,5.85348541 L7.24158176,5.85348541 C3.24268555,5.85348541 0.000356534968,9.10924138 0.000356534968,13.1270133 L0.000356534968,57.8990292 C0.000356534968,61.9168011 3.24268555,65.172557 7.24158176,65.172557 L51.8198621,65.172557 C55.8194714,65.172557 59.0618004,61.9168011 59.0618004,57.8990292 L59.0618004,13.1270133 C59.0618004,9.10924138 55.8194714,5.85348541 51.8198621,5.85348541 L51.8198621,5.85348541 Z" id="Fill-1" fill="#FFFFFF" mask="url(#mask-4)"></path>
        </g>
    </g>
    <text id="+" stroke="none" fill="none" font-family="Helvetica-Bold, Helvetica" font-size="103.934292" font-weight="bold">
        <tspan x="0" y="101" fill="#005A2B">+</tspan>
    </text>
</svg>
