<?xml version="1.0" encoding="UTF-8" standalone="no"?>
<svg width="41px" height="44px" viewBox="0 0 41 44" version="1.1" xmlns="http://www.w3.org/2000/svg" xmlns:xlink="http://www.w3.org/1999/xlink" xmlns:sketch="http://www.bohemiancoding.com/sketch/ns">
    <!-- Generator: Sketch 3.4.4 (17249) - http://www.bohemiancoding.com/sketch -->
    <title>Bell</title>
    <desc>Created with Sketch.</desc>
    <defs>
        <path id="path-1" d="M0,0.430851485 L40.3646724,0.430851485 L40.3646724,44 L0,44 L0,0.430851485 Z"></path>
    </defs>
    <g id="STA---Prod-Dev-Engineers" stroke="none" stroke-width="1" fill="none" fill-rule="evenodd" sketch:type="MSPage">
        <g id="03" sketch:type="MSArtboardGroup" transform="translate(-579.000000, -59.000000)">
            <g id="Navigation-w/-Menu" sketch:type="MSLayerGroup">
                <g id="Bell" transform="translate(579.000000, 59.000000)">
                    <g id="Group-3">
                        <mask id="mask-2" sketch:name="Clip 2" fill="white">
                            <use xlink:href="#path-1"></use>
                        </mask>
                        <g id="Clip-2"></g>
                        <path d="M6.4416,31.7619881 C9.57099031,29.0949782 13.0227966,24.2279683 13.0368365,15.7311762 C13.0689276,15.6192158 13.0945003,15.5063842 13.1135544,15.3926812 C13.6179875,12.3680079 16.6571214,10.0874139 20.1821356,10.0874139 C23.7036399,10.0874139 26.7422724,12.3649584 27.2502154,15.3848396 C27.2692695,15.4994139 27.2953436,15.6131168 27.3274348,15.7250772 C27.3404718,24.2249188 30.7927795,29.0936713 33.9241755,31.7619881 L6.4416,31.7619881 Z M20.1821356,3.0448 C21.2882781,3.0448 22.1878336,3.8267802 22.1878336,4.78737426 C22.1878336,5.74796832 21.2882781,6.52994851 20.1821356,6.52994851 C19.0759932,6.52994851 18.1764376,5.74796832 18.1764376,4.78737426 C18.1764376,3.8267802 19.0759932,3.0448 20.1821356,3.0448 L20.1821356,3.0448 Z M39.4588991,31.0619089 C37.1478336,29.9588594 31.3388308,26.1465426 31.3388308,15.6780277 C31.3388308,15.4000871 31.2957083,15.1352158 31.2194917,14.8808 C30.8389105,12.6189386 29.5537595,10.6158495 27.700996,9.1438099 L27.7065117,9.1438099 C27.7065117,9.1438099 25.2159362,6.82008713 25.2159362,4.87145347 C25.2159362,4.81917624 25.2069105,4.76907723 25.1928707,4.7198495 C25.150751,2.34515644 22.9249276,0.430938614 20.1821356,0.430938614 C17.4137709,0.430938614 15.1678906,2.38131485 15.1678906,4.78737426 C15.1678906,4.8518495 15.1759134,4.91501782 15.1794234,4.97905743 C15.0886655,6.86190891 12.658261,9.1438099 12.658261,9.1438099 L12.6642781,9.1438099 C10.8080046,10.6184634 9.52185071,12.6259089 9.14377664,14.8925624 C9.06806154,15.1439287 9.02544046,15.4048792 9.02544046,15.6784634 C9.02544046,26.1465426 3.21643761,29.9588594 0.905873504,31.0619089 C0.419993162,31.2936713 -0.000200569801,31.8242851 -0.000200569801,32.3056713 L-0.000200569801,34.3758495 C-0.000200569801,34.8568 0.449075783,35.2471366 1.00264843,35.2471366 L39.3616228,35.2471366 C39.9156969,35.2471366 40.3644718,34.8568 40.3644718,34.3758495 L40.3644718,32.3056713 C40.3644718,31.8242851 39.9447795,31.2936713 39.4588991,31.0619089 L39.4588991,31.0619089 Z" id="Fill-1" fill="#FFFFFF" sketch:type="MSShapeGroup" mask="url(#mask-2)"></path>
                    </g>
                    <path d="M20.1823362,44 C24.1230313,44 27.3221197,41.2650297 27.4188946,37.8609109 L12.9462792,37.8609109 C13.0425527,41.2650297 16.2426439,44 20.1823362,44" id="Fill-4" fill="#FFFFFF" sketch:type="MSShapeGroup"></path>
                </g>
            </g>
        </g>
    </g>
</svg>