<?xml version="1.0" encoding="UTF-8" standalone="no"?>
<svg width="42px" height="42px" viewBox="0 0 42 39" version="1.1" xmlns="http://www.w3.org/2000/svg" xmlns:xlink="http://www.w3.org/1999/xlink">
    <!-- Generator: Sketch 3.7.2 (28276) - http://www.bohemiancoding.com/sketch -->
    <title>Fill 1</title>
    <desc>Created with Sketch.</desc>
    <defs></defs>
    <g id="Color-swatch-&amp;-assets" stroke="none" stroke-width="1" fill="none" fill-rule="evenodd">
        <g id="001-swatch" transform="translate(-3220.000000, -3166.000000)" fill="#BF575E">
            <path d="M3253.69708,3204.58045 L3240.77177,3192.54922 L3227.84646,3204.58045 C3227.78197,3204.64119 3227.69396,3204.67509 3227.60292,3204.67509 C3227.50961,3204.67509 3227.42236,3204.64119 3227.35788,3204.58045 L3220.10128,3197.82432 C3219.96624,3197.6986 3219.96624,3197.49449 3220.10128,3197.36948 L3233.02508,3185.33754 L3220.10128,3173.3049 C3219.96624,3173.1806 3219.96624,3172.97649 3220.10128,3172.85077 L3227.35788,3166.09464 C3227.42236,3166.0339 3227.50961,3166 3227.60292,3166 C3227.69396,3166 3227.78197,3166.0339 3227.84646,3166.09464 L3240.77177,3178.12658 L3253.69708,3166.09464 C3253.76005,3166.0339 3253.84881,3166 3253.94061,3166 C3254.03165,3166 3254.12042,3166.0339 3254.1849,3166.09464 L3261.44226,3172.85077 C3261.57654,3172.97649 3261.57654,3173.1806 3261.44226,3173.3049 L3248.51694,3185.33754 L3261.44226,3197.36948 C3261.57654,3197.49449 3261.57654,3197.6986 3261.44226,3197.82432 L3254.1849,3204.58045 C3254.12042,3204.64119 3254.03165,3204.67509 3253.94061,3204.67509 C3253.84881,3204.67509 3253.76005,3204.64119 3253.69708,3204.58045 Z" id="Fill-1"></path>
        </g>
    </g>
</svg>
