<svg width="103px" height="130px" viewBox="0 0 103 130" version="1.1" xmlns="http://www.w3.org/2000/svg" xmlns:xlink="http://www.w3.org/1999/xlink" xmlns:sketch="http://www.bohemiancoding.com/sketch/ns">
    <title>Worklist</title>
    <defs></defs>
    <g id="STA---Prod-Dev-Engineers" stroke="none" stroke-width="1" fill="none" fill-rule="evenodd" sketch:type="MSPage">
        <g id="02" sketch:type="MSArtboardGroup" transform="translate(-468.000000, -357.000000)" fill="#BC835E">
            <g id="BTN-Worklist" sketch:type="MSLayerGroup" transform="translate(369.000000, 302.000000)">
                <g id="Button" transform="translate(99.000000, 55.000000)" sketch:type="MSShapeGroup">
                    <path d="M50.0288853,79.0974653 C49.2224046,79.0974653 48.5697372,78.4449007 48.5697372,77.6385469 C48.5697372,76.8321932 49.2224046,76.1796286 50.0288853,76.1796286 L80.3238763,76.1796286 C81.130357,76.1796286 81.7830244,76.8321932 81.7830244,77.6385469 C81.7830244,78.4449007 81.130357,79.0974653 80.3238763,79.0974653 L50.0288853,79.0974653 Z M44.1361718,63.2654993 C43.3296911,63.2654993 42.6770237,62.6108565 42.6770237,61.806581 C42.6770237,61.0002272 43.3296911,60.3476626 44.1361718,60.3476626 L80.3238763,60.3476626 C81.130357,60.3476626 81.7830244,61.0002272 81.7830244,61.806581 C81.7830244,62.6108565 81.130357,63.2654993 80.3238763,63.2654993 L44.1361718,63.2654993 Z M44.1361718,94.9315095 C43.3296911,94.9315095 42.6770237,94.2768667 42.6770237,93.4705129 C42.6770237,92.6662374 43.3296911,92.0115946 44.1361718,92.0115946 L80.3238763,92.0115946 C81.130357,92.0115946 81.7830244,92.6662374 81.7830244,93.4705129 C81.7830244,94.2768667 81.130357,94.9315095 80.3238763,94.9315095 L44.1361718,94.9315095 Z M28.5719253,89.4221184 C31.8248695,89.4221184 34.7722655,88.1024415 36.9048666,85.9701762 C39.0353891,83.8379109 40.3552738,80.8909789 40.3552738,77.6385469 C40.3552738,74.3840367 39.0353891,71.4371048 36.9048666,69.3069177 C34.7722655,67.1767306 31.8248695,65.8570537 28.5719253,65.8570537 C25.3169026,65.8570537 22.3715852,67.1767306 20.2389841,69.3069177 C18.106383,71.4371048 16.7864983,74.3840367 16.7864983,77.6385469 C16.7864983,80.8909789 18.106383,83.8379109 20.2389841,85.9701762 C22.3715852,88.1024415 25.3169026,89.4221184 28.5719253,89.4221184 L28.5719253,89.4221184 Z M20.9394583,76.7615333 C20.4343686,76.0777952 20.5757106,75.1134959 21.2595563,74.6084857 C21.9413235,74.1013973 22.9078533,74.2447952 23.412943,74.9264551 L27.0192421,79.7770469 C27.8090943,78.573751 28.648832,77.4244891 29.5322194,76.3313395 C30.8770468,74.6625197 32.3445091,73.0996898 33.9242136,71.6386932 C34.5477812,71.0630231 35.5205466,71.1004313 36.0963073,71.7239007 C36.672068,72.3473701 36.634654,73.3199823 36.013165,73.8956524 C34.5644097,75.2340333 33.2029538,76.6887952 31.9329545,78.2620163 C30.6754266,79.8186116 29.5259837,81.4749619 28.4867044,83.2352238 C28.3827765,83.4284993 28.2351988,83.6030707 28.04605,83.7423122 C27.3642828,84.2494007 26.3977531,84.1060027 25.8926634,83.4243429 L20.9394583,76.7615333 Z M28.5719253,57.7540299 C31.8248695,57.7540299 34.7722655,56.4364313 36.9048666,54.3020878 C39.0353891,52.1719007 40.3552738,49.2249687 40.3552738,45.9725367 C40.3552738,42.7180265 39.0353891,39.7710946 36.9048666,37.6409075 C34.7722655,35.5086422 31.8248695,34.1910435 28.5719253,34.1910435 C25.3169026,34.1910435 22.3715852,35.5086422 20.2389841,37.6409075 C18.106383,39.7710946 16.7864983,42.7180265 16.7864983,45.9725367 C16.7864983,49.2249687 18.106383,52.1719007 20.2389841,54.3020878 C22.3715852,56.4364313 25.3169026,57.7540299 28.5719253,57.7540299 L28.5719253,57.7540299 Z M20.9394583,45.0955231 C20.4343686,44.411785 20.5757106,43.4474857 21.2595563,42.9424755 C21.9413235,42.4333088 22.9078533,42.578785 23.412943,43.2604449 L27.0192421,48.1110367 C27.8090943,46.9077408 28.648832,45.7584789 29.5322194,44.6653293 C30.8770468,42.9965095 32.3445091,41.4336796 33.9242136,39.972683 C34.5477812,39.3949347 35.5205466,39.4344211 36.0963073,40.0578905 C36.672068,40.6813599 36.634654,41.6518939 36.013165,42.2296422 C34.5644097,43.5659449 33.2029538,45.022785 31.9329545,46.5939279 C30.6754266,48.1505231 29.5259837,49.8068735 28.4867044,51.5671354 C28.3827765,51.7624891 28.2351988,51.9370605 28.04605,52.076302 C27.3642828,52.5833905 26.3977531,52.4399925 25.8926634,51.7583327 L20.9394583,45.0955231 Z M51.9203736,5.88553333 C54.5123361,5.88553333 56.6116803,7.98662517 56.6116803,10.5761014 C56.6116803,13.1676558 54.5123361,15.2666694 51.9203736,15.2666694 C49.3304897,15.2666694 47.229067,13.1676558 47.229067,10.5761014 C47.229067,7.98662517 49.3304897,5.88553333 51.9203736,5.88553333 L51.9203736,5.88553333 Z M59.1163434,3.37918639 C60.3385358,4.60118639 61.251023,6.13492109 61.7270129,7.84530544 L70.7043073,7.84530544 C72.2133408,7.84530544 73.4355333,9.0714619 73.4355333,10.5781796 L73.4355333,23.026785 C73.4355333,24.5314245 72.2112623,25.7596592 70.7043073,25.7596592 L33.1343614,25.7596592 C31.6274064,25.7596592 30.4031354,24.535581 30.4031354,23.026785 L30.4031354,10.5781796 C30.4031354,9.06938367 31.6253279,7.84530544 33.1343614,7.84530544 L42.1116558,7.84530544 C44.1839787,0.428097959 53.566592,-2.16969116 59.1163434,3.37918639 L59.1163434,3.37918639 Z M91.0721026,23.0745844 L79.2742043,23.0745844 L79.2742043,17.6109143 L91.0721026,17.6109143 C97.5883837,17.6109143 102.911572,22.9332646 102.911572,29.4464415 L102.911572,118.164057 C102.911572,124.679312 97.5863052,129.999584 91.0721026,129.999584 L12.7665661,129.999584 C6.25028497,129.999584 0.927096505,124.679312 0.927096505,118.164057 L0.927096505,29.4464415 C0.927096505,22.9332646 6.25028497,17.6109143 12.7665661,17.6109143 L24.5166576,17.6109143 L24.5166576,23.0745844 L12.7665661,23.0745844 C9.26627344,23.0745844 6.39162695,25.9467 6.39162695,29.4464415 L6.39162695,118.164057 C6.39162695,121.66172 9.26627344,124.535914 12.7665661,124.535914 L91.0721026,124.535914 C94.5723952,124.535914 97.4449632,121.66172 97.4449632,118.164057 C97.4449632,88.5908259 97.4470417,59.0196728 97.4470417,29.4464415 C97.4470417,25.9467 94.5723952,23.0745844 91.0721026,23.0745844 Z M50.0288853,47.4314551 C49.2224046,47.4314551 48.5697372,46.7768122 48.5697372,45.9725367 C48.5697372,45.166183 49.2224046,44.5115401 50.0288853,44.5115401 L80.3238763,44.5115401 C81.130357,44.5115401 81.7830244,45.166183 81.7830244,45.9725367 C81.7830244,46.7768122 81.130357,47.4314551 80.3238763,47.4314551 L50.0288853,47.4314551 Z M23.5147924,110.763476 C22.7083116,110.763476 22.0556443,110.110911 22.0556443,109.304557 C22.0556443,108.498203 22.7083116,107.845639 23.5147924,107.845639 L80.3238763,107.845639 C81.130357,107.845639 81.7830244,108.498203 81.7830244,109.304557 C81.7830244,110.110911 81.130357,110.763476 80.3238763,110.763476 L23.5147924,110.763476 Z" id="Fill-1"></path>
                </g>
            </g>
        </g>
    </g>
</svg>
