<?xml version="1.0" encoding="UTF-8" standalone="no"?>
<svg width="69px" height="70px" viewBox="0 0 69 70" version="1.1" xmlns="http://www.w3.org/2000/svg" xmlns:xlink="http://www.w3.org/1999/xlink">
    <!-- Generator: Sketch 3.8.3 (29802) - http://www.bohemiancoding.com/sketch -->
    <title>icon-corp-question-failed</title>
    <desc>Created with Sketch.</desc>
    <defs></defs>
    <g id="**-stuff" stroke="none" stroke-width="1" fill="none" fill-rule="evenodd">
        <g id="icon-corp-question-failed">
            <g id="Group" transform="translate(2.000000, 2.000000)" fill="#9E1B32">
                <circle id="Oval-118" cx="33" cy="33" r="33"></circle>
            </g>
            <g id="Page-1" transform="translate(30.000000, 16.000000)" fill="#FFFFFF">
                <path d="M6.10391053,37.9852794 C4.58569611,37.9852794 3.2760913,37.4802566 2.17799346,36.4674813 C1.07989562,35.4601657 0.53519274,34.2399215 0.53519274,32.8067489 C0.53519274,31.3817658 1.07989562,30.1451425 2.17799346,29.1132582 C3.2760913,28.0786441 4.58569611,27.559972 6.10391053,27.559972 C7.62212495,27.559972 8.93172976,28.0786441 10.0298276,29.1132582 C11.1279254,30.1451425 11.6755257,31.3817658 11.6755257,32.8067489 C11.6755257,34.2399215 11.1279254,35.4601657 10.0298276,36.4674813 C8.93172976,37.4802566 7.62212495,37.9852794 6.10391053,37.9852794 Z" id="Fill-1"></path>
                <path d="M6.10275159,0.213945998 C7.72527082,0.213945998 9.05805447,0.743537414 10.1039999,1.78907098 C11.1441506,2.84552396 11.6656747,4.16131295 11.6656747,5.74735734 C11.6656747,7.11228367 9.49265784,17.1281131 8.76831889,24.41136 L3.53279702,24.41136 C2.89827611,17.1281131 0.53982851,7.11228367 0.53982851,5.74735734 C0.53982851,4.18315177 1.06135255,2.87555234 2.10729798,1.81363966 C3.1474487,0.74899712 4.48023236,0.213945998 6.10275159,0.213945998 Z" id="Fill-3"></path>
            </g>
        </g>
    </g>
</svg>