<svg width="72px" height="72px" viewBox="721 503 72 72" version="1.1" xmlns="http://www.w3.org/2000/svg" xmlns:xlink="http://www.w3.org/1999/xlink">
    <!-- Generator: Sketch 3.7.2 (28276) - http://www.bohemiancoding.com/sketch -->
    <desc>Created with Sketch.</desc>
    <defs>
        <polygon id="path-1" points="734 521.156506 780.792523 521.156506 780.792523 558 734 558"></polygon>
    </defs>
    <circle id="Page-1" stroke="#4A90E2" stroke-width="2" fill-opacity="0.01" fill="#DEDEDE" fill-rule="evenodd" cx="757" cy="539" r="35"></circle>
    <mask id="mask-2" fill="white">
        <use xlink:href="#path-1"></use>
    </mask>
    <g id="Clip-2" stroke="none" fill="none"></g>
    <path d="M761.402609,552.699091 C766.765267,552.263171 771.957708,552.220643 776.774996,553.046976 L776.774996,527.272436 C776.215231,527.161436 775.646573,527.065746 775.0686,526.98324 L775.0686,550.11462 L773.923663,550.149918 C769.784276,550.277079 765.455195,551.377723 761.402609,552.699091 L761.402609,552.699091 Z M758.788393,551.435562 C763.324951,549.859022 768.259528,548.433884 773.043789,548.15362 L773.043789,524.053436 C768.370041,524.236734 763.17633,525.911941 758.788393,527.45701 L758.788393,551.435562 Z M755.919276,551.435562 L755.919276,527.45701 C751.531339,525.911941 746.337627,524.236734 741.663879,524.053436 L741.663879,548.15362 C746.448141,548.433884 751.382294,549.859022 755.919276,551.435562 L755.919276,551.435562 Z M739.638645,526.995574 C739.090735,527.075102 738.5496,527.166539 738.017357,527.272436 L738.017357,553.046976 C742.800771,552.226597 747.954258,552.262746 753.277114,552.69016 C749.23215,551.37262 744.914077,550.276654 740.784005,550.149918 L739.638645,550.11462 L739.638645,526.995574 Z M735.982384,526.495861 L735.982384,525.43647 C736.919843,525.269757 737.850105,525.110275 738.794762,524.984815 L738.794762,521.156803 C745.937492,521.151275 750.649771,522.532608 757.353411,524.909114 C764.057897,522.532608 768.770177,521.151275 775.912906,521.156803 L775.912906,524.973757 C776.885933,525.101344 777.844141,525.265079 778.809546,525.43647 L778.809546,526.495861 L780.792438,526.495861 L780.792438,556.738895 L761.43733,556.738895 C758.777807,558.420482 756.014546,558.420482 753.355023,556.738895 L733.999915,556.738895 L733.999915,526.495861 L735.982384,526.495861 Z" id="Fill-1" stroke="none" fill="#4990E2" fill-rule="evenodd" mask="url(#mask-2)"></path>
</svg>
