<svg width="177px" height="125px" viewBox="359 1 177 125" version="1.1" xmlns="http://www.w3.org/2000/svg" xmlns:xlink="http://www.w3.org/1999/xlink">
    <!-- Generator: Sketch 3.7.2 (28276) - http://www.bohemiancoding.com/sketch -->
    <desc>Created with Sketch.</desc>
    <defs>
        <path d="M50.523614,101.37931 C78.4270355,101.37931 101.047228,78.6847787 101.047228,50.6896552 C101.047228,22.6945316 78.4270355,0 50.523614,0 C22.6201925,0 0,22.6945316 0,50.6896552 C0,78.6847787 22.6201925,101.37931 50.523614,101.37931 Z" id="path-1"></path>
        <mask id="mask-2" maskContentUnits="userSpaceOnUse" maskUnits="objectBoundingBox" x="-2" y="-2" width="105.047228" height="105.37931">
            <rect x="-2" y="-2" width="105.047228" height="105.37931" fill="white"></rect>
            <use xlink:href="#path-1" fill="black"></use>
        </mask>
        <polyline id="path-3" points="0 0.48254831 47.6365503 0.48254831 47.6365503 68.0689655 0 68.0689655"></polyline>
    </defs>
    <g id="BTN-CANCEL-Copy-3" stroke="none" stroke-width="1" fill="none" fill-rule="evenodd" transform="translate(431.952772, 21.275862)">
        <g id="Oval-76">
            <use fill="#005A2B" fill-rule="evenodd" xlink:href="#path-1"></use>
            <use stroke="#005A2B" mask="url(#mask-2)" stroke-width="4" xlink:href="#path-1"></use>
        </g>
        <g id="Page-1" transform="translate(27.427105, 17.379310)">
            <g id="Group-3">
                <mask id="mask-4" fill="white">
                    <use xlink:href="#path-3"></use>
                </mask>
                <g id="Clip-2"></g>
                <path d="M23.8182752,48.4585661 C31.678306,48.4585661 38.1092402,42.0897372 38.1092402,34.3056129 L38.1092402,14.6350298 C38.1092402,6.85157945 31.678306,0.482076545 23.8182752,0.482076545 C15.9582444,0.482076545 9.52731006,6.85157945 9.52731006,14.6350298 L9.52731006,34.3056129 C9.52731006,42.0897372 15.9582444,48.4585661 23.8182752,48.4585661" id="Fill-1" fill="#FFFFFF" mask="url(#mask-4)"></path>
            </g>
            <path d="M46.275506,24.2622055 L43.5534174,24.2622055 C42.8048431,24.2622055 42.1923731,24.8687607 42.1923731,25.6101058 L42.1923731,29.3269409 L42.1923731,33.0431021 L42.1923731,34.3714578 L42.1923731,34.3910024 L42.1903316,34.3910024 C42.1903316,34.4206562 42.1923731,34.45031 42.1923731,34.4799638 C42.1923731,44.5130597 33.9505694,52.6752701 23.8189557,52.6752701 C13.6873419,52.6752701 5.44417718,44.5130597 5.44417718,34.4799638 C5.44417718,34.45031 5.44621874,34.4206562 5.44689927,34.3910024 L5.44417718,34.3910024 L5.44417718,34.3714578 L5.44417718,33.0431021 L5.44417718,29.3269409 L5.44417718,25.6101058 C5.44417718,24.8687607 4.83170725,24.2622055 4.08313288,24.2622055 L1.36104429,24.2622055 C0.612469933,24.2622055 0,24.8687607 0,25.6101058 L0,29.3269409 L0,33.0431021 L0,34.3714578 L0.00272208859,34.3714578 C0.00272208859,34.4078511 0,34.4435705 0,34.4799638 C0,46.5928699 9.22651927,56.570028 21.0961866,57.909167 L21.0961866,62.6773643 L14.9714872,62.6773643 C14.2222324,62.6773643 13.6104429,63.2839194 13.6104429,64.0252646 L13.6104429,66.7210652 C13.6104429,67.4624104 14.2222324,68.0689655 14.9714872,68.0689655 L21.0961866,68.0689655 L26.5403637,68.0689655 L32.6650631,68.0689655 C33.4136374,68.0689655 34.0261074,67.4624104 34.0261074,66.7210652 L34.0261074,64.0252646 C34.0261074,63.2839194 33.4136374,62.6773643 32.6650631,62.6773643 L26.5403637,62.6773643 L26.5403637,57.909167 C38.410031,56.570028 47.6365503,46.5928699 47.6365503,34.4799638 C47.6365503,34.4435705 47.6338282,34.4078511 47.6331477,34.3714578 L47.6365503,34.3714578 L47.6365503,33.0431021 L47.6365503,29.3269409 L47.6365503,25.6101058 C47.6365503,24.8687607 47.0240804,24.2622055 46.275506,24.2622055" id="Fill-4" fill="#FFFFFF"></path>
        </g>
    </g>
    <text id="+" stroke="none" fill="none" font-family="Helvetica-Bold, Helvetica" font-size="103.934292" font-weight="bold">
        <tspan x="359.776181" y="102" fill="#005A2B">+</tspan>
    </text>
</svg>
