<?xml version="1.0" encoding="UTF-8" standalone="no"?>
<svg width="69px" height="70px" viewBox="0 0 69 70" version="1.1" xmlns="http://www.w3.org/2000/svg" xmlns:xlink="http://www.w3.org/1999/xlink">
    <!-- Generator: Sketch 3.8.3 (29802) - http://www.bohemiancoding.com/sketch -->
    <title>icon-incomplete-question</title>
    <desc>Created with Sketch.</desc>
    <defs></defs>
    <g id="**-stuff" stroke="none" stroke-width="1" fill="none" fill-rule="evenodd">
        <g id="icon-incomplete-question">
            <g id="Group" transform="translate(1.000000, 2.000000)" fill="#8C8C8C">
                <circle id="Oval-118" cx="33" cy="33" r="33"></circle>
            </g>
            <g id="Group-2" transform="translate(25.000000, 20.000000)" fill="#FFFFFF">
                <path d="M8.87642703,32.8319185 C6.61097281,32.8319185 4.77374771,30.9611715 4.77374771,28.654253 C4.77374771,26.3471664 6.61097281,24.4769236 8.87642703,24.4769236 C11.1428718,24.4769236 12.9794365,26.3471664 12.9794365,28.654253 C12.9794365,30.9611715 11.1428718,32.8319185 8.87642703,32.8319185" id="Fill-1"></path>
                <path d="M12.4937745,18.7665341 L12.4937745,21.0973202 L5.44945496,21.0973202 L5.44945496,17.7079569 C5.44945496,13.8098109 11.4714064,11.6067667 11.4714064,9.27598065 C11.4714064,7.6660961 9.99423051,6.6424798 8.66860219,6.6424798 C7.03987878,6.6424798 5.7063264,8.08495518 4.41850243,9.7795528 L1.65084462e-05,5.60239151 C2.65110806,2.17117589 5.71474571,0.032506961 9.50145335,0.032506961 C14.5391711,0.032506961 18.5150656,3.64138472 18.5150656,9.3608618 C18.5150656,14.8687243 12.4937745,16.2249739 12.4937745,18.7665341" id="Fill-3"></path>
            </g>
        </g>
    </g>
</svg>