<?xml version="1.0" encoding="UTF-8" standalone="no"?>
<svg width="134px" height="130px" viewBox="0 0 134 130" version="1.1" xmlns="http://www.w3.org/2000/svg" xmlns:xlink="http://www.w3.org/1999/xlink" xmlns:sketch="http://www.bohemiancoding.com/sketch/ns">
    <!-- Generator: Sketch 3.4.4 (17249) - http://www.bohemiancoding.com/sketch -->
    <title>Icon pie</title>
    <desc>Created with Sketch.</desc>
    <defs></defs>
    <g id="STA---Prod-Dev-Engineers" stroke="none" stroke-width="1" fill="none" fill-rule="evenodd" sketch:type="MSPage">
        <g id="02" sketch:type="MSArtboardGroup" transform="translate(-866.000000, -357.000000)" fill="#000000">
            <g id="BTN-Worklist-Copy-2" sketch:type="MSLayerGroup" transform="translate(782.000000, 302.000000)">
                <g id="Icon-pie" transform="translate(84.000000, 55.000000)" sketch:type="MSShapeGroup">
                    <path d="M58.516027,15.6411772 C30.0019731,17.7295405 7.38766978,40.9619437 7.38766978,69.0144323 C7.38766978,98.530307 32.2056724,122.544953 62.7102325,122.544953 C91.9736286,122.544953 116.004294,100.444044 117.911423,72.5886482 L59.0500652,72.5886482 L58.516027,15.6411772 Z M62.7102325,129.693385 C28.1317838,129.693385 -0.00021108231,102.472157 -0.00021108231,69.0144323 C-0.00021108231,35.8548998 27.8774296,8.63775646 62.1424211,8.34262835 L65.8363615,8.3099498 L66.3703998,65.4402164 L125.421732,65.4402164 L125.421732,69.0144323 C125.421732,102.472157 97.2897366,129.693385 62.7102325,129.693385 L62.7102325,129.693385 Z" id="Fill-1"></path>
                    <path d="M133.467345,57.8466416 C133.467345,26.3087819 107.045117,0.742926301 74.4497863,0.742926301 C74.2714217,0.742926301 74.0930572,0.748032323 73.9146926,0.749053528 L74.4497863,57.8466416 L133.467345,57.8466416 Z" id="Fill-4"></path>
                </g>
            </g>
        </g>
    </g>
</svg>