<svg width="72px" height="72px" viewBox="621 231 72 72" version="1.1" xmlns="http://www.w3.org/2000/svg" xmlns:xlink="http://www.w3.org/1999/xlink">
    <!-- Generator: Sketch 3.7.2 (28276) - http://www.bohemiancoding.com/sketch -->
    <desc>Created with Sketch.</desc>
    <defs></defs>
    <g id="help" stroke="none" stroke-width="1" fill="none" fill-rule="evenodd" transform="translate(622.000000, 232.000000)">
        <g id="Group-4">
            <circle id="Oval-53" stroke="#8AA4A3" stroke-width="2" fill-opacity="0.01" fill="#DEDEDE" cx="35" cy="35" r="35"></circle>
            <g id="Group-2" transform="translate(24.000000, 17.000000)" fill="#AC8248">
                <path d="M10.2779681,35.8064516 C7.65481062,35.8064516 5.52749735,33.6522581 5.52749735,30.9958065 C5.52749735,28.3391613 7.65481062,26.1855484 10.2779681,26.1855484 C12.9022726,26.1855484 15.0288212,28.3391613 15.0288212,30.9958065 C15.0288212,33.6522581 12.9022726,35.8064516 10.2779681,35.8064516" id="Fill-1"></path>
                <path d="M14.4664758,21.6099484 L14.4664758,24.2938839 L6.30989522,24.2938839 L6.30989522,20.3909806 C6.30989522,15.9022065 13.2826811,13.3653677 13.2826811,10.6814323 C13.2826811,8.82762581 11.5722669,7.64891613 10.0373288,7.64891613 C8.15143858,7.64891613 6.60732531,9.30994839 5.11616071,11.2613032 L1.9115043e-05,6.45123871 C3.06970407,2.50014194 6.61707398,0.0374322581 11.0016828,0.0374322581 C16.8348297,0.0374322581 21.438497,4.19310968 21.438497,10.7791742 C21.438497,17.1215613 14.4664758,18.6833032 14.4664758,21.6099484" id="Fill-3"></path>
            </g>
        </g>
    </g>
</svg>
