<?xml version="1.0" encoding="UTF-8" standalone="no"?>
<svg width="57px" height="57px" viewBox="0 0 57 57" version="1.1" xmlns="http://www.w3.org/2000/svg" xmlns:xlink="http://www.w3.org/1999/xlink">
    <!-- Generator: Sketch 3.8.3 (29802) - http://www.bohemiancoding.com/sketch -->
    <title>icon-search</title>
    <desc>Created with Sketch.</desc>
    <defs>
        <polygon id="path-1" points="0.306071081 18.5701357 18.5641212 18.5701357 18.5641212 0.16574457 0.306071081 0.16574457"></polygon>
    </defs>
    <g id="**-stuff" stroke="none" stroke-width="1" fill="none" fill-rule="evenodd">
        <g id="icon-search">
            <g id="Page-1" transform="translate(1.000000, 0.000000)">
                <g id="Group-9" transform="translate(0.000000, 0.569798)">
                    <path d="M23.6464,30.22526 C15.8184,30.22526 9.4704,23.826993 9.4704,15.9349907 C9.4704,15.7233278 9.4924,15.5197283 9.5004,15.3100812 C8.4664,16.9973369 7.8604,18.9768889 7.8604,21.1035971 C7.8604,27.205536 12.7684,32.1503844 18.8224,32.1503844 C21.1584,32.1503844 23.3204,31.4065405 25.1004,30.150674 C24.6224,30.1990541 24.1384,30.22526 23.6464,30.22526" id="Fill-7" fill="#414042"></path>
                    <g id="Group-4" transform="translate(32.787879, 33.841629)">
                        <mask id="mask-2" fill="white">
                            <use xlink:href="#path-1"></use>
                        </mask>
                        <g id="Clip-3"></g>
                        <path d="M17.4953212,10.5483136 C18.9213212,11.9856054 18.9213212,14.317929 17.4953212,15.7572367 L15.7733212,17.4908566 C14.3433212,18.9301643 12.0313212,18.9301643 10.6053212,17.4908566 L1.37732121,8.18776833 C-0.0506787879,6.75047647 -0.0506787879,4.41815294 1.37532121,2.98086109 L3.09732121,1.24522534 C4.52332121,-0.194082353 6.83932121,-0.194082353 8.26532121,1.24522534 L17.4953212,10.5483136 Z" id="Fill-2" fill="#414042" mask="url(#mask-2)"></path>
                    </g>
                    <path d="M19.623,0.651720136 C8.783,0.651720136 0.001,9.50729253 0.001,20.4331296 C0.001,31.3569509 8.783,40.2125233 19.623,40.2125233 C30.463,40.2125233 39.251,31.3569509 39.251,20.4331296 C39.251,9.50729253 30.463,0.651720136 19.623,0.651720136 M19.623,36.553779 C10.791,36.553779 3.627,29.3370821 3.627,20.4331296 C3.627,11.5271613 10.791,4.31248032 19.623,4.31248032 C28.459,4.31248032 35.619,11.5271613 35.619,20.4331296 C35.619,29.3370821 28.459,36.553779 19.623,36.553779" id="Fill-5" fill="#414042"></path>
                </g>
                <polygon id="Fill-1" fill="#414042" points="39.9394 38.2232158 36.7094 41.4767769 30.1554 34.8708787 33.3854 31.6173176"></polygon>
            </g>
        </g>
    </g>
</svg>