<?xml version="1.0" encoding="UTF-8" standalone="no"?>
<svg width="60px" height="60px" viewBox="0 0 60 60" version="1.1" xmlns="http://www.w3.org/2000/svg" xmlns:xlink="http://www.w3.org/1999/xlink">
    <!-- Generator: Sketch 3.7.2 (28276) - http://www.bohemiancoding.com/sketch -->
    <title>Page 1</title>
    <desc>Created with Sketch.</desc>
    <defs>
        <polygon id="path-1" points="29.9560833 59.9107143 59.9107143 59.9107143 59.9107143 0 29.9560833 0 0.00145238095 0 0.00145238095 59.9107143"></polygon>
    </defs>
    <g id="Color-swatch-&amp;-assets" stroke="none" stroke-width="1" fill="none" fill-rule="evenodd">
        <g id="001-swatch" transform="translate(-3216.000000, -2792.000000)">
            <g id="Page-1" transform="translate(3216.000000, 2792.000000)">
                <mask id="mask-2" fill="white">
                    <use xlink:href="#path-1"></use>
                </mask>
                <g id="Clip-2"></g>
                <path d="M29.9524524,0 C13.4127381,0 0.00145238095,13.4112857 0.00145238095,29.9539048 C0.00145238095,46.4965238 13.4127381,59.9107143 29.9524524,59.9107143 C46.4950714,59.9107143 59.9121667,46.4965238 59.9121667,29.9539048 C59.9121667,13.4112857 46.4950714,0 29.9524524,0 L29.9524524,0 Z M45.9286429,34.3110476 L34.3095952,34.3110476 L34.3095952,45.9300952 L25.5953095,45.9300952 L25.5953095,34.3110476 L13.9762619,34.3110476 L13.9762619,25.5967619 L25.5953095,25.5967619 L25.5953095,13.9777143 L34.3095952,13.9777143 L34.3095952,25.5967619 L45.9286429,25.5967619 L45.9286429,34.3110476 Z" id="Fill-1" fill="#48AF46" mask="url(#mask-2)"></path>
            </g>
        </g>
    </g>
</svg>