<?xml version="1.0" encoding="UTF-8" standalone="no"?>
<svg width="52px" height="52px" viewBox="0 0 52 52" version="1.1" xmlns="http://www.w3.org/2000/svg" xmlns:xlink="http://www.w3.org/1999/xlink">
    <!-- Generator: Sketch 3.8.3 (29802) - http://www.bohemiancoding.com/sketch -->
    <title>icon-back-arrow</title>
    <desc>Created with Sketch.</desc>
    <defs></defs>
    <g id="**-stuff" stroke="none" stroke-width="1" fill="none" fill-rule="evenodd">
        <g id="icon-back-arrow">
            <path d="M26,51 C39.8071187,51 51,39.8071187 51,26 C51,12.1928813 39.8071187,1 26,1 C12.1928813,1 1,12.1928813 1,26 C1,39.8071187 12.1928813,51 26,51 Z" id="Oval-76" fill="#525252"></path>
            <path d="M16.678103,24.1637799 L15.155089,25.601115 C14.8837105,25.8580394 14.8770427,26.2679849 15.1397531,26.5160933 L27.9032111,38.7791952 C28.1659215,39.0279332 28.599327,39.0210063 28.8707055,38.7647117 L30.7390165,37.0002456 C31.010395,36.743951 31.0170628,36.3346352 30.7543524,36.0858971 L20.3019559,26.0427333 L30.7293473,15.8072749 C30.9900574,15.5616854 30.9833896,15.1567776 30.7146782,14.902372 L28.865037,13.1561678 C28.5963256,12.902392 28.1675875,12.8954651 27.9068775,13.142314 L16.678103,24.1637799 Z" id="Arrow" fill="#FFFFFF"></path>
        </g>
    </g>
</svg>